<?xml version="1.0" encoding="UTF-8" standalone="no"?>
<score-partwise version="4.0">
  <work>
    <work-title>Clair de Lune</work-title>
  </work>
  <movement-title>Andante très expressif</movement-title>
  <identification>
    <creator type="composer">Claude Debussy</creator>
    <encoding>
      <software>Tempo sample score</software>
    </encoding>
  </identification>
  <part-list>
    <score-part id="P1">
      <part-name>Piano</part-name>
      <score-instrument id="P1-I1">
        <instrument-name>Acoustic Grand Piano</instrument-name>
      </score-instrument>
      <midi-instrument id="P1-I1">
        <midi-channel>1</midi-channel>
        <midi-program>1</midi-program>
      </midi-instrument>
    </score-part>
  </part-list>
  <part id="P1">
    <measure number="1">
      <attributes>
        <divisions>2</divisions>
        <key><fifths>-5</fifths><mode>major</mode></key>
        <time><beats>9</beats><beat-type>8</beat-type></time>
        <staves>2</staves>
        <clef number="1"><sign>G</sign><line>2</line></clef>
        <clef number="2"><sign>F</sign><line>4</line></clef>
      </attributes>
      <direction placement="above">
        <direction-type><words font-style="italic">Andante très expressif</words></direction-type>
        <sound tempo="66"/>
      </direction>
      <direction placement="below">
        <direction-type><dynamics><pp/></dynamics></direction-type>
        <staff>1</staff>
      </direction>
      <note><pitch><step>D</step><alter>-1</alter><octave>5</octave></pitch><duration>2</duration><voice>1</voice><type>quarter</type><staff>1</staff></note>
      <note><chord/><pitch><step>F</step><octave>5</octave></pitch><duration>2</duration><voice>1</voice><type>quarter</type><staff>1</staff></note>
      <note><pitch><step>A</step><alter>-1</alter><octave>4</octave></pitch><duration>1</duration><voice>1</voice><type>eighth</type><staff>1</staff><beam number="1">begin</beam></note>
      <note><pitch><step>D</step><alter>-1</alter><octave>5</octave></pitch><duration>1</duration><voice>1</voice><type>eighth</type><staff>1</staff><beam number="1">continue</beam></note>
      <note><pitch><step>F</step><octave>5</octave></pitch><duration>1</duration><voice>1</voice><type>eighth</type><staff>1</staff><beam number="1">end</beam></note>
      <note><pitch><step>A</step><alter>-1</alter><octave>5</octave></pitch><duration>2</duration><voice>1</voice><type>quarter</type><staff>1</staff></note>
      <note><pitch><step>G</step><alter>-1</alter><octave>5</octave></pitch><duration>2</duration><voice>1</voice><type>quarter</type><staff>1</staff></note>
      <note><pitch><step>F</step><octave>5</octave></pitch><duration>1</duration><voice>1</voice><type>eighth</type><staff>1</staff></note>
      <note><pitch><step>E</step><alter>-1</alter><octave>5</octave></pitch><duration>2</duration><voice>1</voice><type>quarter</type><staff>1</staff></note>
      <note><pitch><step>D</step><alter>-1</alter><octave>5</octave></pitch><duration>1</duration><voice>1</voice><type>eighth</type><staff>1</staff></note>
      <note><pitch><step>C</step><octave>5</octave></pitch><duration>2</duration><voice>1</voice><type>quarter</type><staff>1</staff></note>
      <note><rest/><duration>3</duration><voice>1</voice><type>quarter</type><dot/><staff>1</staff></note>
      <backup><duration>18</duration></backup>
      <note><pitch><step>D</step><alter>-1</alter><octave>3</octave></pitch><duration>3</duration><voice>2</voice><type>quarter</type><dot/><staff>2</staff></note>
      <note><pitch><step>A</step><alter>-1</alter><octave>2</octave></pitch><duration>3</duration><voice>2</voice><type>quarter</type><dot/><staff>2</staff></note>
      <note><pitch><step>F</step><octave>3</octave></pitch><duration>3</duration><voice>2</voice><type>quarter</type><dot/><staff>2</staff></note>
      <note><pitch><step>D</step><alter>-1</alter><octave>3</octave></pitch><duration>3</duration><voice>2</voice><type>quarter</type><dot/><staff>2</staff></note>
      <note><pitch><step>A</step><alter>-1</alter><octave>2</octave></pitch><duration>3</duration><voice>2</voice><type>quarter</type><dot/><staff>2</staff></note>
      <note><pitch><step>F</step><octave>3</octave></pitch><duration>3</duration><voice>2</voice><type>quarter</type><dot/><staff>2</staff></note>
    </measure>
    <measure number="2">
      <note><pitch><step>C</step><octave>5</octave></pitch><duration>2</duration><voice>1</voice><type>quarter</type><staff>1</staff></note>
      <note><chord/><pitch><step>E</step><alter>-1</alter><octave>5</octave></pitch><duration>2</duration><voice>1</voice><type>quarter</type><staff>1</staff></note>
      <note><pitch><step>G</step><alter>-1</alter><octave>4</octave></pitch><duration>1</duration><voice>1</voice><type>eighth</type><staff>1</staff><beam number="1">begin</beam></note>
      <note><pitch><step>C</step><octave>5</octave></pitch><duration>1</duration><voice>1</voice><type>eighth</type><staff>1</staff><beam number="1">continue</beam></note>
      <note><pitch><step>E</step><alter>-1</alter><octave>5</octave></pitch><duration>1</duration><voice>1</voice><type>eighth</type><staff>1</staff><beam number="1">end</beam></note>
      <note><pitch><step>G</step><alter>-1</alter><octave>5</octave></pitch><duration>3</duration><voice>1</voice><type>quarter</type><dot/><staff>1</staff></note>
      <note><pitch><step>F</step><octave>5</octave></pitch><duration>2</duration><voice>1</voice><type>quarter</type><staff>1</staff></note>
      <note><pitch><step>E</step><alter>-1</alter><octave>5</octave></pitch><duration>2</duration><voice>1</voice><type>quarter</type><staff>1</staff></note>
      <note><pitch><step>D</step><alter>-1</alter><octave>5</octave></pitch><duration>2</duration><voice>1</voice><type>quarter</type><staff>1</staff></note>
      <note><pitch><step>C</step><octave>5</octave></pitch><duration>2</duration><voice>1</voice><type>quarter</type><staff>1</staff></note>
      <note><rest/><duration>2</duration><voice>1</voice><type>quarter</type><staff>1</staff></note>
      <backup><duration>18</duration></backup>
      <note><pitch><step>C</step><octave>3</octave></pitch><duration>3</duration><voice>2</voice><type>quarter</type><dot/><staff>2</staff></note>
      <note><pitch><step>G</step><alter>-1</alter><octave>2</octave></pitch><duration>3</duration><voice>2</voice><type>quarter</type><dot/><staff>2</staff></note>
      <note><pitch><step>E</step><alter>-1</alter><octave>3</octave></pitch><duration>3</duration><voice>2</voice><type>quarter</type><dot/><staff>2</staff></note>
      <note><pitch><step>C</step><octave>3</octave></pitch><duration>3</duration><voice>2</voice><type>quarter</type><dot/><staff>2</staff></note>
      <note><pitch><step>G</step><alter>-1</alter><octave>2</octave></pitch><duration>3</duration><voice>2</voice><type>quarter</type><dot/><staff>2</staff></note>
      <note><pitch><step>E</step><alter>-1</alter><octave>3</octave></pitch><duration>3</duration><voice>2</voice><type>quarter</type><dot/><staff>2</staff></note>
    </measure>
    <measure number="3">
      <direction placement="below"><direction-type><wedge type="crescendo"/></direction-type><staff>1</staff></direction>
      <note><pitch><step>B</step><alter>-1</alter><octave>4</octave></pitch><duration>1</duration><voice>1</voice><type>eighth</type><staff>1</staff><beam number="1">begin</beam></note>
      <note><pitch><step>D</step><alter>-1</alter><octave>5</octave></pitch><duration>1</duration><voice>1</voice><type>eighth</type><staff>1</staff><beam number="1">continue</beam></note>
      <note><pitch><step>F</step><octave>5</octave></pitch><duration>1</duration><voice>1</voice><type>eighth</type><staff>1</staff><beam number="1">end</beam></note>
      <note><pitch><step>A</step><alter>-1</alter><octave>5</octave></pitch><duration>3</duration><voice>1</voice><type>quarter</type><dot/><staff>1</staff></note>
      <note><pitch><step>G</step><alter>-1</alter><octave>5</octave></pitch><duration>2</duration><voice>1</voice><type>quarter</type><staff>1</staff></note>
      <note><pitch><step>F</step><octave>5</octave></pitch><duration>2</duration><voice>1</voice><type>quarter</type><staff>1</staff></note>
      <note><pitch><step>D</step><alter>-1</alter><octave>5</octave></pitch><duration>2</duration><voice>1</voice><type>quarter</type><staff>1</staff></note>
      <note><pitch><step>B</step><alter>-1</alter><octave>4</octave></pitch><duration>3</duration><voice>1</voice><type>quarter</type><dot/><staff>1</staff></note>
      <note><rest/><duration>3</duration><voice>1</voice><type>quarter</type><dot/><staff>1</staff></note>
      <backup><duration>18</duration></backup>
      <note><pitch><step>B</step><alter>-1</alter><octave>2</octave></pitch><duration>3</duration><voice>2</voice><type>quarter</type><dot/><staff>2</staff></note>
      <note><pitch><step>F</step><octave>2</octave></pitch><duration>3</duration><voice>2</voice><type>quarter</type><dot/><staff>2</staff></note>
      <note><pitch><step>D</step><alter>-1</alter><octave>3</octave></pitch><duration>3</duration><voice>2</voice><type>quarter</type><dot/><staff>2</staff></note>
      <note><pitch><step>B</step><alter>-1</alter><octave>2</octave></pitch><duration>3</duration><voice>2</voice><type>quarter</type><dot/><staff>2</staff></note>
      <note><pitch><step>F</step><octave>2</octave></pitch><duration>3</duration><voice>2</voice><type>quarter</type><dot/><staff>2</staff></note>
      <note><pitch><step>D</step><alter>-1</alter><octave>3</octave></pitch><duration>3</duration><voice>2</voice><type>quarter</type><dot/><staff>2</staff></note>
    </measure>
    <measure number="4">
      <note><pitch><step>A</step><alter>-1</alter><octave>4</octave></pitch><duration>2</duration><voice>1</voice><type>quarter</type><staff>1</staff></note>
      <note><chord/><pitch><step>C</step><octave>5</octave></pitch><duration>2</duration><voice>1</voice><type>quarter</type><staff>1</staff></note>
      <note><chord/><pitch><step>F</step><octave>5</octave></pitch><duration>2</duration><voice>1</voice><type>quarter</type><staff>1</staff></note>
      <note><rest/><duration>1</duration><voice>1</voice><type>eighth</type><staff>1</staff></note>
      <note><pitch><step>E</step><alter>-1</alter><octave>5</octave></pitch><duration>1</duration><voice>1</voice><type>eighth</type><staff>1</staff><beam number="1">begin</beam></note>
      <note><pitch><step>F</step><octave>5</octave></pitch><duration>1</duration><voice>1</voice><type>eighth</type><staff>1</staff><beam number="1">continue</beam></note>
      <note><pitch><step>A</step><alter>-1</alter><octave>5</octave></pitch><duration>1</duration><voice>1</voice><type>eighth</type><staff>1</staff><beam number="1">end</beam></note>
      <note><pitch><step>C</step><octave>6</octave></pitch><duration>3</duration><voice>1</voice><type>quarter</type><dot/><staff>1</staff></note>
      <note><pitch><step>B</step><alter>-1</alter><octave>5</octave></pitch><duration>2</duration><voice>1</voice><type>quarter</type><staff>1</staff></note>
      <note><pitch><step>A</step><alter>-1</alter><octave>5</octave></pitch><duration>2</duration><voice>1</voice><type>quarter</type><staff>1</staff></note>
      <note><pitch><step>F</step><octave>5</octave></pitch><duration>3</duration><voice>1</voice><type>quarter</type><dot/><staff>1</staff></note>
      <note><rest/><duration>3</duration><voice>1</voice><type>quarter</type><dot/><staff>1</staff></note>
      <backup><duration>18</duration></backup>
      <note><pitch><step>F</step><octave>2</octave></pitch><duration>6</duration><voice>2</voice><type>half</type><dot/><staff>2</staff></note>
      <note><pitch><step>C</step><octave>3</octave></pitch><duration>6</duration><voice>2</voice><type>half</type><dot/><staff>2</staff></note>
      <note><pitch><step>F</step><octave>3</octave></pitch><duration>6</duration><voice>2</voice><type>half</type><dot/><staff>2</staff></note>
    </measure>
    <measure number="5">
      <print new-system="yes"/>
      <direction placement="above"><direction-type><words font-style="italic">Un poco mosso</words></direction-type></direction>
      <note><pitch><step>G</step><alter>-1</alter><octave>5</octave></pitch><duration>1</duration><voice>1</voice><type>eighth</type><staff>1</staff><beam number="1">begin</beam></note>
      <note><pitch><step>A</step><alter>-1</alter><octave>5</octave></pitch><duration>1</duration><voice>1</voice><type>eighth</type><staff>1</staff><beam number="1">continue</beam></note>
      <note><pitch><step>C</step><octave>6</octave></pitch><duration>1</duration><voice>1</voice><type>eighth</type><staff>1</staff><beam number="1">end</beam></note>
      <note><pitch><step>D</step><alter>-1</alter><octave>6</octave></pitch><duration>3</duration><voice>1</voice><type>quarter</type><dot/><staff>1</staff></note>
      <note><pitch><step>C</step><octave>6</octave></pitch><duration>2</duration><voice>1</voice><type>quarter</type><staff>1</staff></note>
      <note><pitch><step>A</step><alter>-1</alter><octave>5</octave></pitch><duration>2</duration><voice>1</voice><type>quarter</type><staff>1</staff></note>
      <note><pitch><step>G</step><alter>-1</alter><octave>5</octave></pitch><duration>2</duration><voice>1</voice><type>quarter</type><staff>1</staff></note>
      <note><pitch><step>F</step><octave>5</octave></pitch><duration>3</duration><voice>1</voice><type>quarter</type><dot/><staff>1</staff></note>
      <note><rest/><duration>3</duration><voice>1</voice><type>quarter</type><dot/><staff>1</staff></note>
      <backup><duration>18</duration></backup>
      <note><pitch><step>G</step><alter>-1</alter><octave>2</octave></pitch><duration>3</duration><voice>2</voice><type>quarter</type><dot/><staff>2</staff></note>
      <note><pitch><step>D</step><alter>-1</alter><octave>3</octave></pitch><duration>3</duration><voice>2</voice><type>quarter</type><dot/><staff>2</staff></note>
      <note><pitch><step>B</step><alter>-1</alter><octave>3</octave></pitch><duration>3</duration><voice>2</voice><type>quarter</type><dot/><staff>2</staff></note>
      <note><pitch><step>G</step><alter>-1</alter><octave>2</octave></pitch><duration>3</duration><voice>2</voice><type>quarter</type><dot/><staff>2</staff></note>
      <note><pitch><step>D</step><alter>-1</alter><octave>3</octave></pitch><duration>3</duration><voice>2</voice><type>quarter</type><dot/><staff>2</staff></note>
      <note><pitch><step>B</step><alter>-1</alter><octave>3</octave></pitch><duration>3</duration><voice>2</voice><type>quarter</type><dot/><staff>2</staff></note>
    </measure>
    <measure number="6">
      <note><pitch><step>F</step><octave>5</octave></pitch><duration>2</duration><voice>1</voice><type>quarter</type><staff>1</staff></note>
      <note><chord/><pitch><step>A</step><alter>-1</alter><octave>5</octave></pitch><duration>2</duration><voice>1</voice><type>quarter</type><staff>1</staff></note>
      <note><pitch><step>E</step><alter>-1</alter><octave>5</octave></pitch><duration>1</duration><voice>1</voice><type>eighth</type><staff>1</staff><beam number="1">begin</beam></note>
      <note><pitch><step>F</step><octave>5</octave></pitch><duration>1</duration><voice>1</voice><type>eighth</type><staff>1</staff><beam number="1">continue</beam></note>
      <note><pitch><step>A</step><alter>-1</alter><octave>5</octave></pitch><duration>1</duration><voice>1</voice><type>eighth</type><staff>1</staff><beam number="1">end</beam></note>
      <note><pitch><step>C</step><octave>6</octave></pitch><duration>3</duration><voice>1</voice><type>quarter</type><dot/><staff>1</staff></note>
      <note><pitch><step>A</step><alter>-1</alter><octave>5</octave></pitch><duration>3</duration><voice>1</voice><type>quarter</type><dot/><staff>1</staff></note>
      <note><pitch><step>F</step><octave>5</octave></pitch><duration>3</duration><voice>1</voice><type>quarter</type><dot/><staff>1</staff></note>
      <note><pitch><step>E</step><alter>-1</alter><octave>5</octave></pitch><duration>3</duration><voice>1</voice><type>quarter</type><dot/><staff>1</staff></note>
      <note><rest/><duration>1</duration><voice>1</voice><type>eighth</type><staff>1</staff></note>
      <backup><duration>18</duration></backup>
      <note><pitch><step>F</step><octave>2</octave></pitch><duration>3</duration><voice>2</voice><type>quarter</type><dot/><staff>2</staff></note>
      <note><pitch><step>C</step><octave>3</octave></pitch><duration>3</duration><voice>2</voice><type>quarter</type><dot/><staff>2</staff></note>
      <note><pitch><step>A</step><alter>-1</alter><octave>3</octave></pitch><duration>3</duration><voice>2</voice><type>quarter</type><dot/><staff>2</staff></note>
      <note><pitch><step>F</step><octave>2</octave></pitch><duration>3</duration><voice>2</voice><type>quarter</type><dot/><staff>2</staff></note>
      <note><pitch><step>C</step><octave>3</octave></pitch><duration>3</duration><voice>2</voice><type>quarter</type><dot/><staff>2</staff></note>
      <note><pitch><step>A</step><alter>-1</alter><octave>3</octave></pitch><duration>3</duration><voice>2</voice><type>quarter</type><dot/><staff>2</staff></note>
    </measure>
    <measure number="7">
      <direction placement="below"><direction-type><wedge type="diminuendo"/></direction-type><staff>1</staff></direction>
      <note><pitch><step>D</step><alter>-1</alter><octave>5</octave></pitch><duration>3</duration><voice>1</voice><type>quarter</type><dot/><staff>1</staff></note>
      <note><pitch><step>F</step><octave>5</octave></pitch><duration>3</duration><voice>1</voice><type>quarter</type><dot/><staff>1</staff></note>
      <note><pitch><step>A</step><alter>-1</alter><octave>5</octave></pitch><duration>3</duration><voice>1</voice><type>quarter</type><dot/><staff>1</staff></note>
      <note><pitch><step>G</step><alter>-1</alter><octave>5</octave></pitch><duration>3</duration><voice>1</voice><type>quarter</type><dot/><staff>1</staff></note>
      <note><pitch><step>F</step><octave>5</octave></pitch><duration>3</duration><voice>1</voice><type>quarter</type><dot/><staff>1</staff></note>
      <note><pitch><step>D</step><alter>-1</alter><octave>5</octave></pitch><duration>3</duration><voice>1</voice><type>quarter</type><dot/><staff>1</staff></note>
      <backup><duration>18</duration></backup>
      <note><pitch><step>D</step><alter>-1</alter><octave>2</octave></pitch><duration>6</duration><voice>2</voice><type>half</type><dot/><staff>2</staff></note>
      <note><pitch><step>A</step><alter>-1</alter><octave>2</octave></pitch><duration>6</duration><voice>2</voice><type>half</type><dot/><staff>2</staff></note>
      <note><pitch><step>D</step><alter>-1</alter><octave>3</octave></pitch><duration>6</duration><voice>2</voice><type>half</type><dot/><staff>2</staff></note>
    </measure>
    <measure number="8">
      <direction placement="below"><direction-type><wedge type="stop"/></direction-type><staff>1</staff></direction>
      <note><pitch><step>D</step><alter>-1</alter><octave>5</octave></pitch><duration>6</duration><voice>1</voice><type>half</type><dot/><staff>1</staff><notations><fermata type="upright"/></notations></note>
      <note><chord/><pitch><step>F</step><octave>5</octave></pitch><duration>6</duration><voice>1</voice><type>half</type><dot/><staff>1</staff></note>
      <note><chord/><pitch><step>A</step><alter>-1</alter><octave>5</octave></pitch><duration>6</duration><voice>1</voice><type>half</type><dot/><staff>1</staff></note>
      <note><rest/><duration>6</duration><voice>1</voice><type>half</type><dot/><staff>1</staff></note>
      <note><rest/><duration>6</duration><voice>1</voice><type>half</type><dot/><staff>1</staff></note>
      <backup><duration>18</duration></backup>
      <note><pitch><step>D</step><alter>-1</alter><octave>2</octave></pitch><duration>18</duration><voice>2</voice><type>whole</type><dot/><staff>2</staff></note>
      <barline location="right"><bar-style>light-heavy</bar-style></barline>
    </measure>
  </part>
</score-partwise>
